<svg width="400" height="400" viewBox="0 0 400 400" fill="none" xmlns="http://www.w3.org/2000/svg">
<rect width="400" height="400" rx="200" fill="#121921"/>
<path d="M73.7623 183L58.0543 132.642H67.5253L74.6093 157.975C75.4306 160.798 76.175 163.519 76.8423 166.137C77.5096 168.755 78.254 171.501 79.0753 174.376H79.3833C80.256 171.501 81.0003 168.755 81.6163 166.137C82.2836 163.519 83.0023 160.798 83.7723 157.975L90.7793 132.642H99.9423L84.3113 183H73.7623ZM113.89 183.924C110.758 183.924 108.525 182.974 107.191 181.075C105.907 179.176 105.266 176.583 105.266 173.298V128.638H114.121V173.76C114.121 174.838 114.326 175.608 114.737 176.07C115.147 176.481 115.584 176.686 116.046 176.686C116.251 176.686 116.431 176.686 116.585 176.686C116.79 176.635 117.072 176.583 117.432 176.532L118.587 183.154C118.073 183.359 117.406 183.539 116.585 183.693C115.815 183.847 114.916 183.924 113.89 183.924ZM135.333 183.924C132.047 183.924 129.352 182.897 127.248 180.844C125.194 178.791 124.168 176.121 124.168 172.836C124.168 168.781 125.939 165.649 129.481 163.442C133.023 161.183 138.669 159.643 146.421 158.822C146.369 156.82 145.83 155.1 144.804 153.663C143.828 152.174 142.057 151.43 139.491 151.43C137.643 151.43 135.82 151.789 134.024 152.508C132.278 153.227 130.559 154.099 128.865 155.126L125.631 149.197C127.735 147.862 130.097 146.707 132.715 145.732C135.384 144.757 138.207 144.269 141.185 144.269C145.907 144.269 149.424 145.681 151.734 148.504C154.095 151.276 155.276 155.306 155.276 160.593V183H147.961L147.345 178.842H147.037C145.343 180.279 143.52 181.486 141.57 182.461C139.67 183.436 137.591 183.924 135.333 183.924ZM138.182 176.994C139.722 176.994 141.108 176.635 142.34 175.916C143.623 175.146 144.983 174.119 146.421 172.836V164.366C141.287 165.033 137.72 166.034 135.718 167.369C133.716 168.652 132.715 170.244 132.715 172.143C132.715 173.837 133.228 175.069 134.255 175.839C135.281 176.609 136.59 176.994 138.182 176.994ZM179.117 183.924C174.394 183.924 170.621 182.179 167.798 178.688C164.975 175.197 163.563 170.346 163.563 164.135C163.563 160.028 164.307 156.486 165.796 153.509C167.336 150.532 169.338 148.247 171.802 146.656C174.266 145.065 176.858 144.269 179.579 144.269C181.735 144.269 183.557 144.654 185.046 145.424C186.586 146.143 188.075 147.144 189.512 148.427L189.204 142.344V128.638H198.059V183H190.744L190.128 178.919H189.82C188.434 180.305 186.817 181.486 184.969 182.461C183.121 183.436 181.17 183.924 179.117 183.924ZM181.273 176.609C184.096 176.609 186.74 175.197 189.204 172.374V154.741C187.921 153.56 186.637 152.739 185.354 152.277C184.071 151.815 182.787 151.584 181.504 151.584C179.091 151.584 177.012 152.688 175.267 154.895C173.573 157.051 172.726 160.105 172.726 164.058C172.726 168.113 173.47 171.219 174.959 173.375C176.448 175.531 178.552 176.609 181.273 176.609ZM209.336 183V145.193H218.191V183H209.336ZM213.802 138.571C212.211 138.571 210.927 138.109 209.952 137.185C208.977 136.261 208.489 135.029 208.489 133.489C208.489 132 208.977 130.794 209.952 129.87C210.927 128.946 212.211 128.484 213.802 128.484C215.393 128.484 216.677 128.946 217.652 129.87C218.627 130.794 219.115 132 219.115 133.489C219.115 135.029 218.627 136.261 217.652 137.185C216.677 138.109 215.393 138.571 213.802 138.571ZM229.488 183V145.193H236.803L237.419 150.352H237.727C239.319 148.658 241.038 147.221 242.886 146.04C244.786 144.859 246.916 144.269 249.277 144.269C252.049 144.269 254.257 144.885 255.899 146.117C257.593 147.298 258.877 148.94 259.749 151.045C261.546 149.094 263.42 147.477 265.37 146.194C267.372 144.911 269.554 144.269 271.915 144.269C275.919 144.269 278.871 145.578 280.77 148.196C282.67 150.814 283.619 154.51 283.619 159.284V183H274.687V160.439C274.687 157.308 274.2 155.1 273.224 153.817C272.3 152.534 270.863 151.892 268.912 151.892C266.551 151.892 263.907 153.458 260.981 156.589V183H252.126V160.439C252.126 157.308 251.639 155.1 250.663 153.817C249.739 152.534 248.276 151.892 246.274 151.892C243.913 151.892 241.269 153.458 238.343 156.589V183H229.488ZM294.382 183V145.193H303.237V183H294.382ZM298.848 138.571C297.256 138.571 295.973 138.109 294.998 137.185C294.022 136.261 293.535 135.029 293.535 133.489C293.535 132 294.022 130.794 294.998 129.87C295.973 128.946 297.256 128.484 298.848 128.484C300.439 128.484 301.722 128.946 302.698 129.87C303.673 130.794 304.161 132 304.161 133.489C304.161 135.029 303.673 136.261 302.698 137.185C301.722 138.109 300.439 138.571 298.848 138.571ZM314.534 183V145.193H321.849L322.465 151.892H322.773C324.108 149.428 325.725 147.554 327.624 146.271C329.523 144.936 331.474 144.269 333.476 144.269C335.273 144.269 336.71 144.526 337.788 145.039L336.248 152.739C335.581 152.534 334.965 152.38 334.4 152.277C333.835 152.174 333.142 152.123 332.321 152.123C330.832 152.123 329.267 152.713 327.624 153.894C325.981 155.023 324.57 157.025 323.389 159.9V183H314.534ZM61.1098 271V225.22H69.2298V264.14H88.2698V271H61.1098ZM108.728 271.84C105.881 271.84 103.221 271.14 100.748 269.74C98.2745 268.293 96.2679 266.24 94.7279 263.58C93.1879 260.873 92.4179 257.63 92.4179 253.85C92.4179 250.023 93.1879 246.78 94.7279 244.12C96.2679 241.413 98.2745 239.36 100.748 237.96C103.221 236.513 105.881 235.79 108.728 235.79C111.621 235.79 114.305 236.513 116.778 237.96C119.251 239.36 121.258 241.413 122.798 244.12C124.338 246.78 125.108 250.023 125.108 253.85C125.108 257.63 124.338 260.873 122.798 263.58C121.258 266.24 119.251 268.293 116.778 269.74C114.305 271.14 111.621 271.84 108.728 271.84ZM108.728 265.26C111.248 265.26 113.231 264.21 114.678 262.11C116.125 260.01 116.848 257.257 116.848 253.85C116.848 250.397 116.125 247.62 114.678 245.52C113.231 243.42 111.248 242.37 108.728 242.37C106.208 242.37 104.225 243.42 102.778 245.52C101.378 247.62 100.678 250.397 100.678 253.85C100.678 257.257 101.378 260.01 102.778 262.11C104.225 264.21 106.208 265.26 108.728 265.26ZM145.046 286.19C142.339 286.19 139.889 285.863 137.696 285.21C135.549 284.557 133.846 283.553 132.586 282.2C131.372 280.893 130.766 279.237 130.766 277.23C130.766 274.383 132.399 271.933 135.666 269.88V269.6C134.779 269.04 134.032 268.293 133.426 267.36C132.866 266.427 132.586 265.26 132.586 263.86C132.586 262.507 132.959 261.293 133.706 260.22C134.499 259.1 135.386 258.19 136.366 257.49V257.21C135.199 256.323 134.149 255.087 133.216 253.5C132.329 251.913 131.886 250.117 131.886 248.11C131.886 245.45 132.516 243.21 133.776 241.39C135.036 239.57 136.692 238.193 138.746 237.26C140.846 236.28 143.086 235.79 145.466 235.79C146.399 235.79 147.286 235.883 148.126 236.07C149.012 236.21 149.806 236.397 150.506 236.63H162.826V242.58H156.526C157.086 243.233 157.552 244.073 157.926 245.1C158.299 246.08 158.486 247.177 158.486 248.39C158.486 250.91 157.902 253.057 156.736 254.83C155.569 256.557 154.006 257.863 152.046 258.75C150.086 259.637 147.892 260.08 145.466 260.08C144.719 260.08 143.949 260.01 143.156 259.87C142.362 259.73 141.569 259.497 140.776 259.17C140.262 259.637 139.842 260.103 139.516 260.57C139.236 261.037 139.096 261.667 139.096 262.46C139.096 263.44 139.492 264.21 140.286 264.77C141.126 265.33 142.596 265.61 144.696 265.61H150.786C154.939 265.61 158.066 266.287 160.166 267.64C162.312 268.947 163.386 271.093 163.386 274.08C163.386 276.32 162.639 278.35 161.146 280.17C159.652 282.037 157.529 283.507 154.776 284.58C152.022 285.653 148.779 286.19 145.046 286.19ZM145.466 255.04C147.099 255.04 148.499 254.433 149.666 253.22C150.832 252.007 151.416 250.303 151.416 248.11C151.416 245.963 150.832 244.307 149.666 243.14C148.546 241.927 147.146 241.32 145.466 241.32C143.786 241.32 142.362 241.903 141.196 243.07C140.029 244.237 139.446 245.917 139.446 248.11C139.446 250.303 140.029 252.007 141.196 253.22C142.362 254.433 143.786 255.04 145.466 255.04ZM146.306 280.94C149.059 280.94 151.299 280.38 153.026 279.26C154.752 278.14 155.616 276.857 155.616 275.41C155.616 274.057 155.079 273.147 154.006 272.68C152.979 272.213 151.486 271.98 149.526 271.98H144.836C142.969 271.98 141.406 271.817 140.146 271.49C138.372 272.843 137.486 274.36 137.486 276.04C137.486 277.58 138.279 278.77 139.866 279.61C141.452 280.497 143.599 280.94 146.306 280.94ZM176.543 271.84C173.556 271.84 171.106 270.907 169.193 269.04C167.326 267.173 166.393 264.747 166.393 261.76C166.393 258.073 168.003 255.227 171.223 253.22C174.443 251.167 179.576 249.767 186.623 249.02C186.576 247.2 186.086 245.637 185.153 244.33C184.266 242.977 182.656 242.3 180.323 242.3C178.643 242.3 176.986 242.627 175.353 243.28C173.766 243.933 172.203 244.727 170.663 245.66L167.723 240.27C169.636 239.057 171.783 238.007 174.163 237.12C176.589 236.233 179.156 235.79 181.863 235.79C186.156 235.79 189.353 237.073 191.453 239.64C193.599 242.16 194.673 245.823 194.673 250.63V271H188.023L187.463 267.22H187.183C185.643 268.527 183.986 269.623 182.213 270.51C180.486 271.397 178.596 271.84 176.543 271.84ZM179.133 265.54C180.533 265.54 181.793 265.213 182.913 264.56C184.079 263.86 185.316 262.927 186.623 261.76V254.06C181.956 254.667 178.713 255.577 176.893 256.79C175.073 257.957 174.163 259.403 174.163 261.13C174.163 262.67 174.629 263.79 175.563 264.49C176.496 265.19 177.686 265.54 179.133 265.54ZM218.656 271.84C215.53 271.84 212.706 271.14 210.186 269.74C207.713 268.293 205.73 266.24 204.236 263.58C202.79 260.873 202.066 257.63 202.066 253.85C202.066 250.023 202.86 246.78 204.446 244.12C206.033 241.413 208.133 239.36 210.746 237.96C213.406 236.513 216.253 235.79 219.286 235.79C221.48 235.79 223.393 236.163 225.026 236.91C226.66 237.657 228.106 238.567 229.366 239.64L225.446 244.89C224.56 244.097 223.65 243.49 222.716 243.07C221.783 242.603 220.78 242.37 219.706 242.37C216.953 242.37 214.69 243.42 212.916 245.52C211.19 247.62 210.326 250.397 210.326 253.85C210.326 257.257 211.166 260.01 212.846 262.11C214.573 264.21 216.79 265.26 219.496 265.26C220.85 265.26 222.11 264.98 223.276 264.42C224.49 263.813 225.586 263.113 226.566 262.32L229.856 267.64C228.27 269.04 226.496 270.09 224.536 270.79C222.576 271.49 220.616 271.84 218.656 271.84ZM236.64 271V221.58H244.69V234.32L244.41 240.97C245.857 239.617 247.467 238.427 249.24 237.4C251.014 236.327 253.067 235.79 255.4 235.79C259.087 235.79 261.77 236.98 263.45 239.36C265.13 241.74 265.97 245.1 265.97 249.44V271H257.92V250.49C257.92 247.643 257.5 245.637 256.66 244.47C255.82 243.303 254.444 242.72 252.53 242.72C251.037 242.72 249.707 243.093 248.54 243.84C247.42 244.54 246.137 245.59 244.69 246.99V271H236.64ZM290.373 271.84C287.2 271.84 284.33 271.14 281.763 269.74C279.197 268.293 277.167 266.24 275.673 263.58C274.18 260.873 273.433 257.63 273.433 253.85C273.433 250.117 274.18 246.897 275.673 244.19C277.213 241.483 279.197 239.407 281.623 237.96C284.05 236.513 286.593 235.79 289.253 235.79C292.38 235.79 294.993 236.49 297.093 237.89C299.193 239.243 300.78 241.157 301.853 243.63C302.927 246.057 303.463 248.88 303.463 252.1C303.463 253.78 303.347 255.087 303.113 256.02H281.273C281.647 259.053 282.743 261.41 284.563 263.09C286.383 264.77 288.67 265.61 291.423 265.61C292.917 265.61 294.293 265.4 295.553 264.98C296.86 264.513 298.143 263.883 299.403 263.09L302.133 268.13C300.5 269.203 298.68 270.09 296.673 270.79C294.667 271.49 292.567 271.84 290.373 271.84ZM281.203 250.56H296.463C296.463 247.9 295.88 245.823 294.713 244.33C293.547 242.79 291.797 242.02 289.463 242.02C287.457 242.02 285.66 242.767 284.073 244.26C282.533 245.707 281.577 247.807 281.203 250.56ZM318.852 271L306.882 236.63H315.072L320.532 254.48C320.999 256.16 321.465 257.863 321.932 259.59C322.445 261.317 322.935 263.067 323.402 264.84H323.682C324.195 263.067 324.685 261.317 325.152 259.59C325.665 257.863 326.155 256.16 326.622 254.48L332.082 236.63H339.852L328.162 271H318.852Z" fill="white"/>
</svg>
