<?xml version="1.0" standalone="no"?>
<!DOCTYPE svg PUBLIC "-//W3C//DTD SVG 20010904//EN"
 "http://www.w3.org/TR/2001/REC-SVG-20010904/DTD/svg10.dtd">
<svg version="1.0" xmlns="http://www.w3.org/2000/svg"
 width="400.000000pt" height="400.000000pt" viewBox="0 0 400.000000 400.000000"
 preserveAspectRatio="xMidYMid meet">
<metadata>
Created by potrace 1.11, written by Peter Selinger 2001-2013
</metadata>
<g transform="translate(0.000000,400.000000) scale(0.100000,-0.100000)"
fill="#000000" stroke="none">
<path d="M0 2000 l0 -2000 2000 0 2000 0 0 2000 0 2000 -2000 0 -2000 0 0
-2000z m1040 526 c0 -37 3 -35 -92 -51 l-37 -6 56 -157 c30 -86 95 -273 144
-416 48 -142 90 -260 92 -262 2 -2 14 33 26 78 12 46 69 233 128 417 110 349
111 350 58 351 -50 1 -65 11 -65 46 l0 34 160 0 160 0 0 -35 c0 -30 -4 -35
-27 -41 -65 -13 -59 -3 -199 -409 -74 -215 -150 -436 -170 -492 l-36 -103 -62
0 -62 0 -183 495 c-125 336 -189 496 -200 499 -9 2 -28 7 -43 10 -24 6 -28 11
-28 41 l0 35 190 0 190 0 0 -34z m1470 -1 c0 -31 -3 -35 -35 -40 -19 -3 -51
-7 -70 -10 l-35 -6 0 -447 0 -447 142 3 c79 2 163 6 187 10 l44 7 41 117 41
117 40 -6 c22 -3 41 -7 43 -9 3 -2 -33 -253 -44 -301 l-4 -23 -380 0 -380 0 0
34 c0 34 1 35 48 41 26 4 53 8 60 10 9 4 12 102 12 449 l0 444 -30 6 c-16 3
-43 9 -60 12 -26 5 -30 10 -30 40 l0 34 205 0 205 0 0 -35z m-605 -880 c62
-61 14 -165 -76 -165 -53 0 -89 34 -89 85 0 46 13 71 48 89 42 23 89 20 117
-9z m1299 -6 c56 -66 10 -159 -79 -158 -43 0 -65 12 -83 46 -21 39 -14 73 22
109 27 27 42 34 74 34 33 0 45 -6 66 -31z"/>
</g>
</svg>
