<svg width="400" height="400" viewBox="0 0 400 400" fill="none" xmlns="http://www.w3.org/2000/svg">
<rect width="400" height="400" fill="#121921"/>
<path d="M54.3075 149.12H102.948V159.04L89.3475 161.12L113.188 232.8L117.828 248.96L121.828 232.64L144.228 161.12L131.588 159.04V149.12H170.308V159.04L160.068 161.12L123.268 269.12H104.227L63.9075 161.12L54.3075 159.04V149.12ZM189.271 269.44C185.965 269.44 183.085 268.32 180.631 266.08C178.178 263.733 176.951 260.8 176.951 257.28C176.951 253.333 178.338 250.133 181.111 247.68C183.991 245.12 187.458 243.84 191.511 243.84C195.351 243.84 198.391 245.067 200.631 247.52C202.871 249.867 203.991 252.693 203.991 256C203.991 260.16 202.605 263.467 199.831 265.92C197.165 268.267 193.645 269.44 189.271 269.44ZM232.946 161.12L220.626 159.04V149.12H271.826V159.04L256.466 161.12V256.64L290.706 255.2L300.786 225.28L313.746 227.04L308.786 268H220.306V258.4L232.946 256.8V161.12ZM338.178 269.44C334.871 269.44 331.991 268.32 329.538 266.08C327.084 263.733 325.858 260.8 325.858 257.28C325.858 253.333 327.244 250.133 330.018 247.68C332.898 245.12 336.364 243.84 340.418 243.84C344.258 243.84 347.298 245.067 349.538 247.52C351.778 249.867 352.898 252.693 352.898 256C352.898 260.16 351.511 263.467 348.738 265.92C346.071 268.267 342.551 269.44 338.178 269.44Z" fill="#EEEEEE"/>
</svg>
